<svg width="32" height="32" viewBox="0 0 32 32" fill="none" xmlns="http://www.w3.org/2000/svg">
<path fill-rule="evenodd" clip-rule="evenodd" d="M32 16C32 24.8366 24.8366 32 16 32C7.16344 32 0 24.8366 0 16C0 7.16344 7.16344 0 16 0C24.8366 0 32 7.16344 32 16ZM15.0574 6.37573C15.3074 6.13515 15.6465 6 16 6C16.3535 6 16.6926 6.13515 16.9426 6.37573L19.9999 9.31827V7.659C19.9999 7.48883 20.0701 7.32562 20.1951 7.20529C20.3201 7.08496 20.4897 7.01736 20.6665 7.01736H21.9998C22.1766 7.01736 22.3461 7.08496 22.4712 7.20529C22.5962 7.32562 22.6664 7.48883 22.6664 7.659V11.8848L25.805 14.9044C25.93 15.0249 26.0001 15.1882 26 15.3585C25.9999 15.5287 25.9295 15.692 25.8043 15.8123C25.6791 15.9326 25.5094 16.0001 25.3325 16C25.1556 15.9999 24.986 15.9321 24.861 15.8116L16 7.283L7.139 15.8116C7.01399 15.9321 6.84439 15.9999 6.66748 16C6.49058 16.0001 6.32087 15.9326 6.1957 15.8123C6.07052 15.692 6.00013 15.5287 6 15.3585C5.99988 15.1882 6.07003 15.0249 6.19503 14.9044L15.0574 6.37573ZM16 9L24 16.6877V22.0781C24 22.5878 23.7893 23.0766 23.4142 23.4371C23.0391 23.7975 22.5304 24 22 24H10C9.46957 24 8.96086 23.7975 8.58579 23.4371C8.21071 23.0766 8 22.5878 8 22.0781V16.6877L16 9ZM16 15.6486C18.2187 13.505 23.7667 17.2553 16 22.0781C8.23333 17.2553 13.7813 13.505 16 15.6486Z" fill="white"/>
</svg>
