<svg width="132" height="32" viewBox="0 0 132 32" fill="none" xmlns="http://www.w3.org/2000/svg">
<circle cx="16" cy="16" r="16" fill="#335EF7"/>
<path d="M15.0574 6.37573C15.3074 6.13515 15.6465 6 16 6C16.3535 6 16.6926 6.13515 16.9426 6.37573L19.9999 9.31827V7.659C19.9999 7.48883 20.0701 7.32562 20.1951 7.20529C20.3201 7.08496 20.4897 7.01736 20.6665 7.01736H21.9998C22.1766 7.01736 22.3461 7.08496 22.4712 7.20529C22.5962 7.32562 22.6664 7.48883 22.6664 7.659V11.8848L25.805 14.9044C25.93 15.0249 26.0001 15.1882 26 15.3585C25.9999 15.5287 25.9295 15.692 25.8043 15.8123C25.6791 15.9326 25.5094 16.0001 25.3325 16C25.1556 15.9999 24.986 15.9321 24.861 15.8116L16 7.283L7.139 15.8116C7.01399 15.9321 6.84439 15.9999 6.66748 16C6.49058 16.0001 6.32087 15.9326 6.1957 15.8123C6.07052 15.692 6.00013 15.5287 6 15.3585C5.99988 15.1882 6.07003 15.0249 6.19503 14.9044L15.0574 6.37573Z" fill="white"/>
<path d="M24 16.6877L16 9L8 16.6877V22.0781C8 22.5878 8.21071 23.0766 8.58579 23.4371C8.96086 23.7975 9.46957 24 10 24H22C22.5304 24 23.0391 23.7975 23.4142 23.4371C23.7893 23.0766 24 22.5878 24 22.0781V16.6877ZM16 15.6486C18.2187 13.505 23.7667 17.2553 16 22.0781C8.23333 17.2553 13.7813 13.505 16 15.6486Z" fill="white"/>
<path d="M45.792 16.24C46.4427 16.3787 46.9653 16.704 47.36 17.216C47.7547 17.7173 47.952 18.2933 47.952 18.944C47.952 19.8827 47.6213 20.6293 46.96 21.184C46.3093 21.728 45.3973 22 44.224 22H38.992V10.768H44.048C45.1893 10.768 46.08 11.0293 46.72 11.552C47.3707 12.0747 47.696 12.784 47.696 13.68C47.696 14.3413 47.52 14.8907 47.168 15.328C46.8267 15.7653 46.368 16.0693 45.792 16.24ZM41.728 15.312H43.52C43.968 15.312 44.3093 15.216 44.544 15.024C44.7893 14.8213 44.912 14.528 44.912 14.144C44.912 13.76 44.7893 13.4667 44.544 13.264C44.3093 13.0613 43.968 12.96 43.52 12.96H41.728V15.312ZM43.744 19.792C44.2027 19.792 44.5547 19.6907 44.8 19.488C45.056 19.2747 45.184 18.9707 45.184 18.576C45.184 18.1813 45.0507 17.872 44.784 17.648C44.528 17.424 44.1707 17.312 43.712 17.312H41.728V19.792H43.744ZM57.9549 17.392C57.9549 17.648 57.9389 17.9147 57.9069 18.192H51.7149C51.7575 18.7467 51.9335 19.1733 52.2429 19.472C52.5629 19.76 52.9522 19.904 53.4109 19.904C54.0935 19.904 54.5682 19.616 54.8349 19.04H57.7469C57.5975 19.6267 57.3255 20.1547 56.9309 20.624C56.5469 21.0933 56.0615 21.4613 55.4749 21.728C54.8882 21.9947 54.2322 22.128 53.5069 22.128C52.6322 22.128 51.8535 21.9413 51.1709 21.568C50.4882 21.1947 49.9549 20.6613 49.5709 19.968C49.1869 19.2747 48.9949 18.464 48.9949 17.536C48.9949 16.608 49.1815 15.7973 49.5549 15.104C49.9389 14.4107 50.4722 13.8773 51.1549 13.504C51.8375 13.1307 52.6215 12.944 53.5069 12.944C54.3709 12.944 55.1389 13.1253 55.8109 13.488C56.4829 13.8507 57.0055 14.368 57.3789 15.04C57.7629 15.712 57.9549 16.496 57.9549 17.392ZM55.1549 16.672C55.1549 16.2027 54.9949 15.8293 54.6749 15.552C54.3549 15.2747 53.9549 15.136 53.4749 15.136C53.0162 15.136 52.6269 15.2693 52.3069 15.536C51.9975 15.8027 51.8055 16.1813 51.7309 16.672H55.1549ZM63.0303 22.128C62.2516 22.128 61.5583 21.9947 60.9503 21.728C60.3423 21.4613 59.8623 21.0987 59.5103 20.64C59.1583 20.1707 58.9609 19.648 58.9183 19.072H61.6223C61.6543 19.3813 61.7983 19.632 62.0543 19.824C62.3103 20.016 62.6249 20.112 62.9983 20.112C63.3396 20.112 63.6009 20.048 63.7823 19.92C63.9743 19.7813 64.0703 19.6053 64.0703 19.392C64.0703 19.136 63.9369 18.9493 63.6703 18.832C63.4036 18.704 62.9716 18.5653 62.3743 18.416C61.7343 18.2667 61.2009 18.112 60.7743 17.952C60.3476 17.7813 59.9796 17.52 59.6703 17.168C59.3609 16.8053 59.2063 16.32 59.2063 15.712C59.2063 15.2 59.3449 14.736 59.6223 14.32C59.9103 13.8933 60.3263 13.5573 60.8703 13.312C61.4249 13.0667 62.0809 12.944 62.8383 12.944C63.9583 12.944 64.8383 13.2213 65.4783 13.776C66.1289 14.3307 66.5023 15.0667 66.5983 15.984H64.0703C64.0276 15.6747 63.8889 15.4293 63.6543 15.248C63.4303 15.0667 63.1316 14.976 62.7583 14.976C62.4383 14.976 62.1929 15.04 62.0223 15.168C61.8516 15.2853 61.7663 15.4507 61.7663 15.664C61.7663 15.92 61.8996 16.112 62.1663 16.24C62.4436 16.368 62.8703 16.496 63.4463 16.624C64.1076 16.7947 64.6463 16.9653 65.0623 17.136C65.4783 17.296 65.8409 17.5627 66.1503 17.936C66.4703 18.2987 66.6356 18.7893 66.6463 19.408C66.6463 19.9307 66.4969 20.4 66.1983 20.816C65.9103 21.2213 65.4889 21.5413 64.9343 21.776C64.3903 22.0107 63.7556 22.128 63.0303 22.128ZM73.2961 19.68V22H71.9041C70.9121 22 70.1388 21.76 69.5841 21.28C69.0295 20.7893 68.7521 19.9947 68.7521 18.896V15.344H67.6641V13.072H68.7521V10.896H71.4881V13.072H73.2801V15.344H71.4881V18.928C71.4881 19.1947 71.5521 19.3867 71.6801 19.504C71.8081 19.6213 72.0215 19.68 72.3201 19.68H73.2961ZM76.1961 12.144C75.7161 12.144 75.3215 12.0053 75.0121 11.728C74.7135 11.44 74.5641 11.088 74.5641 10.672C74.5641 10.2453 74.7135 9.89333 75.0121 9.616C75.3215 9.328 75.7161 9.184 76.1961 9.184C76.6655 9.184 77.0495 9.328 77.3481 9.616C77.6575 9.89333 77.8121 10.2453 77.8121 10.672C77.8121 11.088 77.6575 11.44 77.3481 11.728C77.0495 12.0053 76.6655 12.144 76.1961 12.144ZM77.5561 13.072V22H74.8201V13.072H77.5561ZM87.9549 17.392C87.9549 17.648 87.9389 17.9147 87.9069 18.192H81.7149C81.7575 18.7467 81.9335 19.1733 82.2429 19.472C82.5629 19.76 82.9522 19.904 83.4109 19.904C84.0935 19.904 84.5682 19.616 84.8349 19.04H87.7469C87.5975 19.6267 87.3255 20.1547 86.9309 20.624C86.5469 21.0933 86.0615 21.4613 85.4749 21.728C84.8882 21.9947 84.2322 22.128 83.5069 22.128C82.6322 22.128 81.8535 21.9413 81.1709 21.568C80.4882 21.1947 79.9549 20.6613 79.5709 19.968C79.1869 19.2747 78.9949 18.464 78.9949 17.536C78.9949 16.608 79.1815 15.7973 79.5549 15.104C79.9389 14.4107 80.4722 13.8773 81.1549 13.504C81.8375 13.1307 82.6215 12.944 83.5069 12.944C84.3709 12.944 85.1389 13.1253 85.8109 13.488C86.4829 13.8507 87.0055 14.368 87.3789 15.04C87.7629 15.712 87.9549 16.496 87.9549 17.392ZM85.1549 16.672C85.1549 16.2027 84.9949 15.8293 84.6749 15.552C84.3549 15.2747 83.9549 15.136 83.4749 15.136C83.0162 15.136 82.6269 15.2693 82.3069 15.536C81.9975 15.8027 81.8055 16.1813 81.7309 16.672H85.1549ZM97.9583 14.384C97.9583 15.0347 97.8089 15.632 97.5103 16.176C97.2116 16.7093 96.7529 17.1413 96.1343 17.472C95.5156 17.8027 94.7476 17.968 93.8303 17.968H92.1343V22H89.3983V10.768H93.8303C94.7263 10.768 95.4836 10.9227 96.1023 11.232C96.7209 11.5413 97.1849 11.968 97.4943 12.512C97.8036 13.056 97.9583 13.68 97.9583 14.384ZM93.6223 15.792C94.1449 15.792 94.5343 15.6693 94.7903 15.424C95.0463 15.1787 95.1743 14.832 95.1743 14.384C95.1743 13.936 95.0463 13.5893 94.7903 13.344C94.5343 13.0987 94.1449 12.976 93.6223 12.976H92.1343V15.792H93.6223ZM98.8386 17.52C98.8386 16.6027 99.0093 15.7973 99.3506 15.104C99.7026 14.4107 100.177 13.8773 100.775 13.504C101.372 13.1307 102.039 12.944 102.775 12.944C103.404 12.944 103.953 13.072 104.423 13.328C104.903 13.584 105.271 13.92 105.527 14.336V13.072H108.263V22H105.527V20.736C105.26 21.152 104.887 21.488 104.407 21.744C103.937 22 103.388 22.128 102.759 22.128C102.033 22.128 101.372 21.9413 100.775 21.568C100.177 21.184 99.7026 20.6453 99.3506 19.952C99.0093 19.248 98.8386 18.4373 98.8386 17.52ZM105.527 17.536C105.527 16.8533 105.335 16.3147 104.951 15.92C104.577 15.5253 104.119 15.328 103.575 15.328C103.031 15.328 102.567 15.5253 102.183 15.92C101.809 16.304 101.623 16.8373 101.623 17.52C101.623 18.2027 101.809 18.7467 102.183 19.152C102.567 19.5467 103.031 19.744 103.575 19.744C104.119 19.744 104.577 19.5467 104.951 19.152C105.335 18.7573 105.527 18.2187 105.527 17.536ZM115.682 12.976C116.727 12.976 117.559 13.3173 118.178 14C118.807 14.672 119.122 15.6 119.122 16.784V22H116.402V17.152C116.402 16.5547 116.247 16.0907 115.938 15.76C115.629 15.4293 115.213 15.264 114.69 15.264C114.167 15.264 113.751 15.4293 113.442 15.76C113.133 16.0907 112.978 16.5547 112.978 17.152V22H110.242V13.072H112.978V14.256C113.255 13.8613 113.629 13.552 114.098 13.328C114.567 13.0933 115.095 12.976 115.682 12.976ZM125.999 19.68V22H124.607C123.615 22 122.842 21.76 122.287 21.28C121.733 20.7893 121.455 19.9947 121.455 18.896V15.344H120.367V13.072H121.455V10.896H124.191V13.072H125.983V15.344H124.191V18.928C124.191 19.1947 124.255 19.3867 124.383 19.504C124.511 19.6213 124.725 19.68 125.023 19.68H125.999ZM128.899 12.144C128.419 12.144 128.025 12.0053 127.715 11.728C127.417 11.44 127.267 11.088 127.267 10.672C127.267 10.2453 127.417 9.89333 127.715 9.616C128.025 9.328 128.419 9.184 128.899 9.184C129.369 9.184 129.753 9.328 130.051 9.616C130.361 9.89333 130.515 10.2453 130.515 10.672C130.515 11.088 130.361 11.44 130.051 11.728C129.753 12.0053 129.369 12.144 128.899 12.144ZM130.259 13.072V22H127.523V13.072H130.259Z" fill="#34364A"/>
</svg>
