<svg width="94" height="24" viewBox="0 0 94 24" fill="none" xmlns="http://www.w3.org/2000/svg">
<path d="M7.792 12.24C8.44267 12.3787 8.96533 12.704 9.36 13.216C9.75467 13.7173 9.952 14.2933 9.952 14.944C9.952 15.8827 9.62133 16.6293 8.96 17.184C8.30933 17.728 7.39733 18 6.224 18H0.992V6.768H6.048C7.18933 6.768 8.08 7.02933 8.72 7.552C9.37067 8.07467 9.696 8.784 9.696 9.68C9.696 10.3413 9.52 10.8907 9.168 11.328C8.82667 11.7653 8.368 12.0693 7.792 12.24ZM3.728 11.312H5.52C5.968 11.312 6.30933 11.216 6.544 11.024C6.78933 10.8213 6.912 10.528 6.912 10.144C6.912 9.76 6.78933 9.46667 6.544 9.264C6.30933 9.06133 5.968 8.96 5.52 8.96H3.728V11.312ZM5.744 15.792C6.20267 15.792 6.55467 15.6907 6.8 15.488C7.056 15.2747 7.184 14.9707 7.184 14.576C7.184 14.1813 7.05067 13.872 6.784 13.648C6.528 13.424 6.17067 13.312 5.712 13.312H3.728V15.792H5.744ZM19.9549 13.392C19.9549 13.648 19.9389 13.9147 19.9069 14.192H13.7149C13.7575 14.7467 13.9335 15.1733 14.2429 15.472C14.5629 15.76 14.9522 15.904 15.4109 15.904C16.0935 15.904 16.5682 15.616 16.8349 15.04H19.7469C19.5975 15.6267 19.3255 16.1547 18.9309 16.624C18.5469 17.0933 18.0615 17.4613 17.4749 17.728C16.8882 17.9947 16.2322 18.128 15.5069 18.128C14.6322 18.128 13.8535 17.9413 13.1709 17.568C12.4882 17.1947 11.9549 16.6613 11.5709 15.968C11.1869 15.2747 10.9949 14.464 10.9949 13.536C10.9949 12.608 11.1815 11.7973 11.5549 11.104C11.9389 10.4107 12.4722 9.87733 13.1549 9.504C13.8375 9.13067 14.6215 8.944 15.5069 8.944C16.3709 8.944 17.1389 9.12533 17.8109 9.488C18.4829 9.85067 19.0055 10.368 19.3789 11.04C19.7629 11.712 19.9549 12.496 19.9549 13.392ZM17.1549 12.672C17.1549 12.2027 16.9949 11.8293 16.6749 11.552C16.3549 11.2747 15.9549 11.136 15.4749 11.136C15.0162 11.136 14.6269 11.2693 14.3069 11.536C13.9975 11.8027 13.8055 12.1813 13.7309 12.672H17.1549ZM25.0303 18.128C24.2516 18.128 23.5583 17.9947 22.9503 17.728C22.3423 17.4613 21.8623 17.0987 21.5103 16.64C21.1583 16.1707 20.9609 15.648 20.9183 15.072H23.6223C23.6543 15.3813 23.7983 15.632 24.0543 15.824C24.3103 16.016 24.6249 16.112 24.9983 16.112C25.3396 16.112 25.6009 16.048 25.7823 15.92C25.9743 15.7813 26.0703 15.6053 26.0703 15.392C26.0703 15.136 25.9369 14.9493 25.6703 14.832C25.4036 14.704 24.9716 14.5653 24.3743 14.416C23.7343 14.2667 23.2009 14.112 22.7743 13.952C22.3476 13.7813 21.9796 13.52 21.6703 13.168C21.3609 12.8053 21.2063 12.32 21.2063 11.712C21.2063 11.2 21.3449 10.736 21.6223 10.32C21.9103 9.89333 22.3263 9.55733 22.8703 9.312C23.4249 9.06667 24.0809 8.944 24.8383 8.944C25.9583 8.944 26.8383 9.22133 27.4783 9.776C28.1289 10.3307 28.5023 11.0667 28.5983 11.984H26.0703C26.0276 11.6747 25.8889 11.4293 25.6543 11.248C25.4303 11.0667 25.1316 10.976 24.7583 10.976C24.4383 10.976 24.1929 11.04 24.0223 11.168C23.8516 11.2853 23.7663 11.4507 23.7663 11.664C23.7663 11.92 23.8996 12.112 24.1663 12.24C24.4436 12.368 24.8703 12.496 25.4463 12.624C26.1076 12.7947 26.6463 12.9653 27.0623 13.136C27.4783 13.296 27.8409 13.5627 28.1503 13.936C28.4703 14.2987 28.6356 14.7893 28.6463 15.408C28.6463 15.9307 28.4969 16.4 28.1983 16.816C27.9103 17.2213 27.4889 17.5413 26.9343 17.776C26.3903 18.0107 25.7556 18.128 25.0303 18.128ZM35.2961 15.68V18H33.9041C32.9121 18 32.1388 17.76 31.5841 17.28C31.0295 16.7893 30.7521 15.9947 30.7521 14.896V11.344H29.6641V9.072H30.7521V6.896H33.4881V9.072H35.2801V11.344H33.4881V14.928C33.4881 15.1947 33.5521 15.3867 33.6801 15.504C33.8081 15.6213 34.0215 15.68 34.3201 15.68H35.2961ZM38.1961 8.144C37.7161 8.144 37.3215 8.00533 37.0121 7.728C36.7135 7.44 36.5641 7.088 36.5641 6.672C36.5641 6.24533 36.7135 5.89333 37.0121 5.616C37.3215 5.328 37.7161 5.184 38.1961 5.184C38.6655 5.184 39.0495 5.328 39.3481 5.616C39.6575 5.89333 39.8121 6.24533 39.8121 6.672C39.8121 7.088 39.6575 7.44 39.3481 7.728C39.0495 8.00533 38.6655 8.144 38.1961 8.144ZM39.5561 9.072V18H36.8201V9.072H39.5561ZM49.9549 13.392C49.9549 13.648 49.9389 13.9147 49.9069 14.192H43.7149C43.7575 14.7467 43.9335 15.1733 44.2429 15.472C44.5629 15.76 44.9522 15.904 45.4109 15.904C46.0935 15.904 46.5682 15.616 46.8349 15.04H49.7469C49.5975 15.6267 49.3255 16.1547 48.9309 16.624C48.5469 17.0933 48.0615 17.4613 47.4749 17.728C46.8882 17.9947 46.2322 18.128 45.5069 18.128C44.6322 18.128 43.8535 17.9413 43.1709 17.568C42.4882 17.1947 41.9549 16.6613 41.5709 15.968C41.1869 15.2747 40.9949 14.464 40.9949 13.536C40.9949 12.608 41.1815 11.7973 41.5549 11.104C41.9389 10.4107 42.4722 9.87733 43.1549 9.504C43.8375 9.13067 44.6215 8.944 45.5069 8.944C46.3709 8.944 47.1389 9.12533 47.8109 9.488C48.4829 9.85067 49.0055 10.368 49.3789 11.04C49.7629 11.712 49.9549 12.496 49.9549 13.392ZM47.1549 12.672C47.1549 12.2027 46.9949 11.8293 46.6749 11.552C46.3549 11.2747 45.9549 11.136 45.4749 11.136C45.0162 11.136 44.6269 11.2693 44.3069 11.536C43.9975 11.8027 43.8055 12.1813 43.7309 12.672H47.1549ZM59.9583 10.384C59.9583 11.0347 59.8089 11.632 59.5103 12.176C59.2116 12.7093 58.7529 13.1413 58.1343 13.472C57.5156 13.8027 56.7476 13.968 55.8303 13.968H54.1343V18H51.3983V6.768H55.8303C56.7263 6.768 57.4836 6.92267 58.1023 7.232C58.7209 7.54133 59.1849 7.968 59.4943 8.512C59.8036 9.056 59.9583 9.68 59.9583 10.384ZM55.6223 11.792C56.1449 11.792 56.5343 11.6693 56.7903 11.424C57.0463 11.1787 57.1743 10.832 57.1743 10.384C57.1743 9.936 57.0463 9.58933 56.7903 9.344C56.5343 9.09867 56.1449 8.976 55.6223 8.976H54.1343V11.792H55.6223ZM60.8386 13.52C60.8386 12.6027 61.0093 11.7973 61.3506 11.104C61.7026 10.4107 62.1773 9.87733 62.7746 9.504C63.372 9.13067 64.0386 8.944 64.7746 8.944C65.404 8.944 65.9533 9.072 66.4226 9.328C66.9026 9.584 67.2706 9.92 67.5266 10.336V9.072H70.2626V18H67.5266V16.736C67.26 17.152 66.8866 17.488 66.4066 17.744C65.9373 18 65.388 18.128 64.7586 18.128C64.0333 18.128 63.372 17.9413 62.7746 17.568C62.1773 17.184 61.7026 16.6453 61.3506 15.952C61.0093 15.248 60.8386 14.4373 60.8386 13.52ZM67.5266 13.536C67.5266 12.8533 67.3346 12.3147 66.9506 11.92C66.5773 11.5253 66.1186 11.328 65.5746 11.328C65.0306 11.328 64.5666 11.5253 64.1826 11.92C63.8093 12.304 63.6226 12.8373 63.6226 13.52C63.6226 14.2027 63.8093 14.7467 64.1826 15.152C64.5666 15.5467 65.0306 15.744 65.5746 15.744C66.1186 15.744 66.5773 15.5467 66.9506 15.152C67.3346 14.7573 67.5266 14.2187 67.5266 13.536ZM77.682 8.976C78.7273 8.976 79.5593 9.31733 80.178 10C80.8073 10.672 81.122 11.6 81.122 12.784V18H78.402V13.152C78.402 12.5547 78.2473 12.0907 77.938 11.76C77.6287 11.4293 77.2127 11.264 76.69 11.264C76.1673 11.264 75.7513 11.4293 75.442 11.76C75.1327 12.0907 74.978 12.5547 74.978 13.152V18H72.242V9.072H74.978V10.256C75.2553 9.86133 75.6287 9.552 76.098 9.328C76.5673 9.09333 77.0953 8.976 77.682 8.976ZM87.9993 15.68V18H86.6073C85.6153 18 84.8419 17.76 84.2873 17.28C83.7326 16.7893 83.4553 15.9947 83.4553 14.896V11.344H82.3673V9.072H83.4553V6.896H86.1913V9.072H87.9833V11.344H86.1913V14.928C86.1913 15.1947 86.2553 15.3867 86.3833 15.504C86.5113 15.6213 86.7246 15.68 87.0233 15.68H87.9993ZM90.8993 8.144C90.4193 8.144 90.0246 8.00533 89.7153 7.728C89.4166 7.44 89.2673 7.088 89.2673 6.672C89.2673 6.24533 89.4166 5.89333 89.7153 5.616C90.0246 5.328 90.4193 5.184 90.8993 5.184C91.3686 5.184 91.7526 5.328 92.0513 5.616C92.3606 5.89333 92.5153 6.24533 92.5153 6.672C92.5153 7.088 92.3606 7.44 92.0513 7.728C91.7526 8.00533 91.3686 8.144 90.8993 8.144ZM92.2593 9.072V18H89.5233V9.072H92.2593Z" fill="#34364A"/>
</svg>
